# Blender v2.79 (sub 0) OBJ File: ''
# www.blender.org
mtllib 051_sciart.mtl
o plane.001_plane
v -57.672138 0.099930 -81.662643
v -137.672134 0.099850 -81.662643
v -57.672131 0.100150 28.337353
v -137.672134 0.100070 28.337360
v 42.327805 0.100015 -81.662682
v -57.672199 0.099925 -81.662567
v 42.327927 0.100255 38.337303
v -57.672070 0.100165 38.337425
vt 0.000000 0.000000
vt 1.000000 0.000000
vt 0.000000 1.000000
vt 1.000000 1.000000
vt 0.000000 0.000000
vt 1.000000 0.000000
vt 0.000000 1.000000
vt 1.000000 1.000000
vn -0.0000 1.0000 -0.0000
usemtl None
s 1
f 1/1/1 2/2/1 3/3/1
f 3/3/1 2/2/1 4/4/1
f 5/5/1 6/6/1 7/7/1
f 7/7/1 6/6/1 8/8/1
