# Blender v2.79 (sub 0) OBJ File: ''
# www.blender.org
mtllib 053_arena.mtl
o plane.001_plane.003
v 66.000023 0.100060 -10.999922
v -73.999977 0.100060 -11.000078
v 65.999977 0.099940 29.000078
v -74.000023 0.099940 28.999922
v 75.999962 0.100057 -11.000027
v 65.999962 0.100057 -10.999987
v 76.000038 0.099997 8.999972
v 66.000038 0.099997 9.000011
vt 0.000000 0.000000
vt 1.000000 0.000000
vt 0.000000 1.000000
vt 1.000000 1.000000
vt 0.000000 0.000000
vt 1.000000 0.000000
vt 0.000000 1.000000
vt 1.000000 1.000000
vn -0.0000 1.0000 0.0000
usemtl None
s 1
f 1/1/1 2/2/1 3/3/1
f 3/3/1 2/2/1 4/4/1
f 5/5/1 6/6/1 7/7/1
f 7/7/1 6/6/1 8/8/1
