# Blender v2.79 (sub 0) OBJ File: ''
# www.blender.org
mtllib 054_hackercity.mtl
o plane.001_plane.004
v 19.999983 0.100000 -68.157318
v -20.000017 0.100000 -68.157280
v 20.000017 0.100000 -38.157322
v -19.999983 0.100000 -38.157276
v 20.000046 0.100000 -38.157269
v -29.999954 0.100000 -38.157318
v 19.999956 0.100000 41.842731
v -30.000044 0.100000 41.842670
vt 0.000000 0.000000
vt 1.000000 0.000000
vt 0.000000 1.000000
vt 1.000000 1.000000
vt 0.000000 0.000000
vt 1.000000 0.000000
vt 0.000000 1.000000
vt 1.000000 1.000000
vn 0.0000 1.0000 0.0000
usemtl None
s 1
f 1/1/1 2/2/1 3/3/1
f 3/3/1 2/2/1 4/4/1
f 5/5/1 6/6/1 7/7/1
f 7/7/1 6/6/1 8/8/1
