# Blender v2.79 (sub 0) OBJ File: ''
# www.blender.org
mtllib 057_designquarter.mtl
o plane.002_plane.007
v 9.999994 0.100000 -12.885078
v -10.000006 0.100000 -12.885057
v 10.000006 0.100000 -2.885079
v -9.999994 0.100000 -2.885057
v 9.999995 0.100000 -2.885088
v -20.000004 0.100000 -2.885056
v 10.000006 0.100000 7.114911
v -19.999992 0.100000 7.114944
v 9.999994 0.100000 7.114930
v -0.000005 0.100000 7.114942
v 10.000006 0.100000 17.114929
v 0.000006 0.100000 17.114941
vt 0.000000 0.000000
vt 1.000000 0.000000
vt 0.000000 1.000000
vt 1.000000 1.000000
vt 0.000000 0.000000
vt 1.000000 0.000000
vt 0.000000 1.000000
vt 1.000000 1.000000
vt 0.000000 0.000000
vt 1.000000 0.000000
vt 0.000000 1.000000
vt 1.000000 1.000000
vn 0.0000 1.0000 0.0000
usemtl None
s 1
f 1/1/1 2/2/1 3/3/1
f 3/3/1 2/2/1 4/4/1
f 5/5/1 6/6/1 7/7/1
f 7/7/1 6/6/1 8/8/1
f 9/9/1 10/10/1 11/11/1
f 11/11/1 10/10/1 12/12/1
