# Blender v2.79 (sub 0) OBJ File: ''
# www.blender.org
mtllib 058_thebattleground.mtl
o plane.001_plane.008
v 194.500000 0.100000 -102.564888
v -195.500000 0.100000 -102.564919
v 194.500000 0.100000 17.435112
v -195.500000 0.100000 17.435081
v 194.500031 0.100000 17.435112
v -205.500000 0.100000 17.435078
v 194.500015 0.100000 67.435120
v -205.500015 0.100000 67.435089
vt 0.000000 0.000000
vt 1.000000 0.000000
vt 0.000000 1.000000
vt 1.000000 1.000000
vt 0.000000 0.000000
vt 1.000000 0.000000
vt 0.000000 1.000000
vt 1.000000 1.000000
vn 0.0000 1.0000 0.0000
usemtl None
s 1
f 1/1/1 2/2/1 3/3/1
f 3/3/1 2/2/1 4/4/1
f 5/5/1 6/6/1 7/7/1
f 7/7/1 6/6/1 8/8/1
