# Blender v2.79 (sub 0) OBJ File: ''
# www.blender.org
mtllib 060_innerglitch.mtl
o plane.002_plane.010
v -10.471502 0.100000 -48.119167
v -30.471502 0.100000 -48.119190
v -10.471514 0.100000 -38.119167
v -30.471514 0.100000 -38.119190
v -20.471502 0.100000 -58.119164
v -30.471504 0.100000 -58.119186
v -20.471523 0.100000 -48.119164
v -30.471523 0.100000 -48.119186
v 29.528488 0.100000 -38.119213
v -30.471521 0.100000 -38.119141
v 29.528507 0.100000 -28.119211
v -30.471508 0.100000 -28.119141
v 39.528496 0.100000 -28.119179
v -30.471512 0.100000 -28.119181
v 39.528492 0.100000 31.880821
v -30.471516 0.100000 31.880821
vt 0.000000 0.000000
vt 1.000000 0.000000
vt 0.000000 1.000000
vt 1.000000 1.000000
vt 0.000000 0.000000
vt 1.000000 0.000000
vt 0.000000 1.000000
vt 1.000000 1.000000
vt 0.000000 0.000000
vt 1.000000 0.000000
vt 0.000000 1.000000
vt 1.000000 1.000000
vt 0.000000 0.000000
vt 1.000000 0.000000
vt 0.000000 1.000000
vt 1.000000 1.000000
vn 0.0000 1.0000 -0.0000
usemtl None
s 1
f 1/1/1 2/2/1 3/3/1
f 3/3/1 2/2/1 4/4/1
f 5/5/1 6/6/1 7/7/1
f 7/7/1 6/6/1 8/8/1
f 9/9/1 10/10/1 11/11/1
f 11/11/1 10/10/1 12/12/1
f 13/13/1 14/14/1 15/15/1
f 15/15/1 14/14/1 16/16/1
