# Blender v2.79 (sub 0) OBJ File: ''
# www.blender.org
mtllib 062_alvygardens.mtl
o plane.001_plane.012
v 9.999979 0.099980 -9.767614
v -10.000021 0.099980 -9.767572
v 10.000021 0.100020 10.232386
v -9.999979 0.100020 10.232428
v -0.000050 0.100017 10.232368
v -10.000050 0.100017 10.232467
v 0.000050 0.100037 20.232367
v -9.999950 0.100037 20.232466
vt 0.000000 0.000000
vt 1.000000 0.000000
vt 0.000000 1.000000
vt 1.000000 1.000000
vt 0.000000 0.000000
vt 1.000000 0.000000
vt 0.000000 1.000000
vt 1.000000 1.000000
vn -0.0000 1.0000 -0.0000
usemtl None
s 1
f 1/1/1 2/2/1 3/3/1
f 3/3/1 2/2/1 4/4/1
f 5/5/1 6/6/1 7/7/1
f 7/7/1 6/6/1 8/8/1
