# Blender v2.79 (sub 0) OBJ File: ''
# www.blender.org
mtllib 066_cryptovalley.mtl
o plane_plane.016
v 115.499741 0.100000 -63.576050
v -114.500259 0.100000 -63.575134
v 115.500259 0.100000 66.423950
v -114.499741 0.100000 66.424866
v -44.500008 0.099999 -73.575615
v -64.500008 0.099999 -73.575584
v -44.500000 0.100000 -63.575615
v -64.500000 0.100000 -63.575592
vt 0.000000 0.000000
vt 1.000000 0.000000
vt 0.000000 1.000000
vt 1.000000 1.000000
vt 0.000000 0.000000
vt 1.000000 0.000000
vt 0.000000 1.000000
vt 1.000000 1.000000
vn 0.0000 1.0000 0.0000
usemtl None
s 1
f 1/1/1 2/2/1 3/3/1
f 3/3/1 2/2/1 4/4/1
f 5/5/1 6/6/1 7/7/1
f 7/7/1 6/6/1 8/8/1
