# Blender v2.79 (sub 0) OBJ File: ''
# www.blender.org
mtllib 074_dragoncity.mtl
o plane.001_plane.024
v 249.000000 0.100000 -469.124481
v -251.000000 0.100000 -469.125031
v 249.000000 0.100000 -459.124481
v -251.000000 0.100000 -459.125031
v 249.000061 0.100000 -459.124756
v -400.999908 0.100000 -459.124786
v 248.999954 0.100000 490.875244
v -401.000031 0.100000 490.875305
vt 0.000000 0.000000
vt 1.000000 0.000000
vt 0.000000 1.000000
vt 1.000000 1.000000
vt 0.000000 0.000000
vt 1.000000 0.000000
vt 0.000000 1.000000
vt 1.000000 1.000000
vn 0.0000 1.0000 0.0000
usemtl None
s 1
f 1/1/1 2/2/1 3/3/1
f 3/3/1 2/2/1 4/4/1
f 5/5/1 6/6/1 7/7/1
f 7/7/1 6/6/1 8/8/1
