# Blender v2.79 (sub 0) OBJ File: ''
# www.blender.org
mtllib 076_starkingdom.mtl
o plane.001_plane.026
v -2.397691 0.100000 -30.569452
v -12.397692 0.100000 -30.569464
v -2.397703 0.100000 -20.569452
v -12.397703 0.100000 -20.569464
v 7.602342 0.100000 -30.569456
v -2.397658 0.100000 -30.569466
v 7.602265 0.100000 39.430542
v -2.397736 0.100000 39.430534
vt 0.000000 0.000000
vt 1.000000 0.000000
vt 0.000000 1.000000
vt 1.000000 1.000000
vt 0.000000 0.000000
vt 1.000000 0.000000
vt 0.000000 1.000000
vt 1.000000 1.000000
vn 0.0000 1.0000 0.0000
usemtl None
s 1
f 1/1/1 2/2/1 3/3/1
f 3/3/1 2/2/1 4/4/1
f 5/5/1 6/6/1 7/7/1
f 7/7/1 6/6/1 8/8/1
