# Blender v2.79 (sub 0) OBJ File: ''
# www.blender.org
mtllib 077_centralbusiness.mtl
o plane.001_plane.027
v 35.499950 0.100000 -25.584442
v -34.500050 0.100000 -25.584297
v 35.500050 0.100000 24.415558
v -34.499950 0.100000 24.415703
v 25.500002 0.100000 24.415627
v -34.500004 0.100000 24.415623
v 25.500002 0.100000 34.415627
v -34.500004 0.100000 34.415623
vt 0.000000 0.000000
vt 1.000000 0.000000
vt 0.000000 1.000000
vt 1.000000 1.000000
vt 0.000000 0.000000
vt 1.000000 0.000000
vt 0.000000 1.000000
vt 1.000000 1.000000
vn 0.0000 1.0000 0.0000
usemtl None
s 1
f 1/1/1 2/2/1 3/3/1
f 3/3/1 2/2/1 4/4/1
f 5/5/1 6/6/1 7/7/1
f 7/7/1 6/6/1 8/8/1
