# Blender v2.79 (sub 0) OBJ File: ''
# www.blender.org
mtllib 078_embassytown.mtl
o plane.001_plane.029
v 14.499940 0.100000 -1.851474
v -15.500060 0.100000 -1.851112
v 14.500060 0.100000 8.148525
v -15.499940 0.100000 8.148888
v 4.500000 0.100000 8.148707
v -5.500000 0.100000 8.148706
v 4.500000 0.100000 18.148708
v -5.500001 0.100000 18.148706
v 24.499990 0.100000 -11.851337
v -15.500011 0.100000 -11.851255
v 24.500010 0.100000 -1.851337
v -15.499990 0.100000 -1.851255
vt 0.000000 0.000000
vt 1.000000 0.000000
vt 0.000000 1.000000
vt 1.000000 1.000000
vt 0.000000 0.000000
vt 1.000000 0.000000
vt 0.000000 1.000000
vt 1.000000 1.000000
vt 0.000000 0.000000
vt 1.000000 0.000000
vt 0.000000 1.000000
vt 1.000000 1.000000
vn 0.0000 1.0000 -0.0000
usemtl None
s 1
f 1/1/1 2/2/1 3/3/1
f 3/3/1 2/2/1 4/4/1
f 5/5/1 6/6/1 7/7/1
f 7/7/1 6/6/1 8/8/1
f 9/9/1 10/10/1 11/11/1
f 11/11/1 10/10/1 12/12/1
