# Blender v2.79 (sub 0) OBJ File: ''
# www.blender.org
mtllib 079_sandhillroad.mtl
o plane.001_plane.030
v 30.000017 0.099970 -14.963005
v -29.999983 0.099970 -14.963072
v 29.999983 0.100030 15.036995
v -30.000017 0.100030 15.036928
v 0.000006 0.100027 15.036970
v -29.999996 0.100027 15.036937
v -0.000005 0.100045 25.036972
v -30.000006 0.100045 25.036938
vt 0.000000 0.000000
vt 1.000000 0.000000
vt 0.000000 1.000000
vt 1.000000 1.000000
vt 0.000000 0.000000
vt 1.000000 0.000000
vt 0.000000 1.000000
vt 1.000000 1.000000
vn 0.0000 1.0000 -0.0000
usemtl None
s 1
f 1/1/1 2/2/1 3/3/1
f 3/3/1 2/2/1 4/4/1
f 5/5/1 6/6/1 7/7/1
f 7/7/1 6/6/1 8/8/1
