# Blender v2.79 (sub 0) OBJ File: ''
# www.blender.org
mtllib 081_fashionstreet2.mtl
o plane.002_plane.032
v 94.499527 0.100000 -236.033051
v -95.500473 0.100000 -236.032654
v 94.500473 0.100000 223.966949
v -95.499527 0.100000 223.967346
v 94.500092 0.099991 223.967331
v -85.499908 0.099991 223.966965
v 94.499901 0.100009 313.967346
v -85.500099 0.100009 313.966980
v 94.500008 0.100000 313.967346
v -75.499985 0.100000 313.966980
v 94.499985 0.100000 323.967346
v -75.500008 0.100000 323.966919
vt 0.000000 0.000000
vt 1.000000 0.000000
vt 0.000000 1.000000
vt 1.000000 1.000000
vt 0.000000 0.000000
vt 1.000000 0.000000
vt 0.000000 1.000000
vt 1.000000 1.000000
vt 0.000000 0.000000
vt 1.000000 0.000000
vt 0.000000 1.000000
vt 1.000000 1.000000
vn 0.0000 1.0000 0.0000
usemtl None
s 1
f 1/1/1 2/2/1 3/3/1
f 3/3/1 2/2/1 4/4/1
f 5/5/1 6/6/1 7/7/1
f 7/7/1 6/6/1 8/8/1
f 9/9/1 10/10/1 11/11/1
f 11/11/1 10/10/1 12/12/1
