# Blender v2.79 (sub 0) OBJ File: ''
# www.blender.org
mtllib 084_bittrextomorrow.mtl
o plane
v -57.070084 0.100088 68.061424
v 42.929916 0.099888 68.061424
v -57.070084 0.100112 -71.938576
v 42.929916 0.099912 -71.938576
v -57.069626 0.100101 -71.938538
v -67.069626 0.100119 -71.938599
v -57.070541 0.100078 78.061478
v -67.070541 0.100096 78.061409
vt 0.000000 0.000000
vt 1.000000 0.000000
vt 0.000000 1.000000
vt 1.000000 1.000000
vt 0.000000 0.000000
vt 1.000000 0.000000
vt 0.000000 1.000000
vt 1.000000 1.000000
vn 0.0000 1.0000 0.0000
usemtl None
s 1
f 1/1/1 2/2/1 3/3/1
f 3/3/1 2/2/1 4/4/1
f 5/5/1 6/6/1 7/7/1
f 7/7/1 6/6/1 8/8/1
