# Blender v2.79 (sub 0) OBJ File: ''
# www.blender.org
mtllib 086_musichub.mtl
o plane.001_plane.002
v 25.499905 0.099995 29.401724
v -24.500095 0.099995 29.401564
v 25.500095 0.100005 -30.598276
v -24.499905 0.100005 -30.598436
v -24.499996 0.100000 29.401632
v 15.500005 0.099992 29.401672
v -24.500008 0.099999 39.401634
v 15.499993 0.099991 39.401672
vt 0.000000 0.000000
vt 1.000000 0.000000
vt 0.000000 1.000000
vt 1.000000 1.000000
vt 0.000000 0.000000
vt 1.000000 0.000000
vt 0.000000 1.000000
vt 1.000000 1.000000
vn 0.0000 -1.0000 -0.0000
usemtl None
s 1
f 1/1/1 2/2/1 3/3/1
f 3/3/1 2/2/1 4/4/1
f 5/5/1 6/6/1 7/7/1
f 7/7/1 6/6/1 8/8/1
