# Blender v2.79 (sub 0) OBJ File: ''
# www.blender.org
mtllib 092_yetepey.mtl
o plane.001_plane.008
v 14.500050 0.100000 -45.151123
v -15.499950 0.100000 -45.151154
v 14.499950 0.100000 44.848877
v -15.500050 0.100000 44.848846
v 4.499930 0.100000 44.848785
v -5.500070 0.100000 44.848923
v 4.500071 0.100000 54.848785
v -5.499930 0.100000 54.848930
vt 0.000000 0.000000
vt 1.000000 0.000000
vt 0.000000 1.000000
vt 1.000000 1.000000
vt 0.000000 0.000000
vt 1.000000 0.000000
vt 0.000000 1.000000
vt 1.000000 1.000000
vn 0.0000 1.0000 -0.0000
usemtl None
s 1
f 1/1/1 2/2/1 3/3/1
f 3/3/1 2/2/1 4/4/1
f 5/5/1 6/6/1 7/7/1
f 7/7/1 6/6/1 8/8/1
