# Blender v2.79 (sub 0) OBJ File: ''
# www.blender.org
mtllib 093_chobury.mtl
o plane.002_plane.009
v 24.500074 0.100000 -26.211800
v -25.499926 0.100000 -26.211948
v 24.499926 0.100000 23.788200
v -25.500074 0.100000 23.788052
v 14.500030 0.100000 23.788172
v -25.499969 0.100000 23.788094
v 14.499969 0.100000 53.788170
v -25.500032 0.100000 53.788094
v 4.500000 0.100000 53.788139
v -15.500001 0.100000 53.788132
v 4.500000 0.100000 63.788139
v -15.500001 0.100000 63.788139
vt 0.000000 0.000000
vt 1.000000 0.000000
vt 0.000000 1.000000
vt 1.000000 1.000000
vt 0.000000 0.000000
vt 1.000000 0.000000
vt 0.000000 1.000000
vt 1.000000 1.000000
vt 0.000000 0.000000
vt 1.000000 0.000000
vt 0.000000 1.000000
vt 1.000000 1.000000
vn 0.0000 1.0000 0.0000
usemtl None
s 1
f 1/1/1 2/2/1 3/3/1
f 3/3/1 2/2/1 4/4/1
f 5/5/1 6/6/1 7/7/1
f 7/7/1 6/6/1 8/8/1
f 9/9/1 10/10/1 11/11/1
f 11/11/1 10/10/1 12/12/1
