# Blender v2.79 (sub 0) OBJ File: ''
# www.blender.org
mtllib 095_redlightdistrict.mtl
o plane_plane.011
v 80.499573 0.100000 -384.466125
v -89.500427 0.100000 -384.465942
v 80.500427 0.100000 385.533875
v -89.499573 0.100000 385.534058
v 90.500038 0.100000 -364.466034
v 80.500038 0.100000 -364.466034
v 90.499969 0.100000 385.533966
v 80.499977 0.100000 385.533966
v 180.500015 0.099935 -284.466064
v 150.500031 0.099935 -284.466095
v 180.499969 0.100065 365.533936
v 150.499969 0.100065 365.533905
v 150.500381 0.100000 -314.466095
v 130.500381 0.100000 -314.466125
v 150.499619 0.100000 365.533905
v 130.499619 0.100000 365.533905
v 130.500397 0.100000 -334.466034
v 110.500381 0.100000 -334.466034
v 130.499619 0.100000 365.533997
v 110.499626 0.100000 365.533966
v 110.499252 0.100000 -364.466064
v 90.499252 0.100000 -364.466034
v 110.500748 0.100000 365.533936
v 90.500748 0.100000 365.533966
vt 0.000000 0.000000
vt 1.000000 0.000000
vt 0.000000 1.000000
vt 1.000000 1.000000
vt 0.000000 0.000000
vt 1.000000 0.000000
vt 0.000000 1.000000
vt 1.000000 1.000000
vt 0.000000 0.000000
vt 1.000000 0.000000
vt 0.000000 1.000000
vt 1.000000 1.000000
vt 0.000000 0.000000
vt 1.000000 0.000000
vt 0.000000 1.000000
vt 1.000000 1.000000
vt 0.000000 0.000000
vt 1.000000 0.000000
vt 0.000000 1.000000
vt 1.000000 1.000000
vt 0.000000 0.000000
vt 1.000000 0.000000
vt 0.000000 1.000000
vt 1.000000 1.000000
vn 0.0000 1.0000 0.0000
usemtl None
s 1
f 1/1/1 2/2/1 3/3/1
f 3/3/1 2/2/1 4/4/1
f 5/5/1 6/6/1 7/7/1
f 7/7/1 6/6/1 8/8/1
f 9/9/1 10/10/1 11/11/1
f 11/11/1 10/10/1 12/12/1
f 13/13/1 14/14/1 15/15/1
f 15/15/1 14/14/1 16/16/1
f 17/17/1 18/18/1 19/19/1
f 19/19/1 18/18/1 20/20/1
f 21/21/1 22/22/1 23/23/1
f 23/23/1 22/22/1 24/24/1
