# Blender v2.79 (sub 0) OBJ File: ''
# www.blender.org
mtllib 100_conference.mtl
o plane.001_plane.028
v 164.500015 0.100000 -122.196068
v -165.499985 0.100000 -122.196098
v 164.499985 0.100000 117.803932
v -165.500015 0.100000 117.803902
v -15.499996 0.100000 117.803963
v -85.499992 0.100000 117.803879
v -15.500007 0.100000 127.803963
v -85.500008 0.100000 127.803886
vt 0.000000 0.000000
vt 1.000000 0.000000
vt 0.000000 1.000000
vt 1.000000 1.000000
vt 0.000000 0.000000
vt 1.000000 0.000000
vt 0.000000 1.000000
vt 1.000000 1.000000
vn 0.0000 1.0000 0.0000
usemtl None
s 1
f 1/1/1 2/2/1 3/3/1
f 3/3/1 2/2/1 4/4/1
f 5/5/1 6/6/1 7/7/1
f 7/7/1 6/6/1 8/8/1
