# Blender v2.79 (sub 0) OBJ File: ''
# www.blender.org
mtllib 102_theforest.mtl
o plane_plane.030
v 63.599831 0.100000 -78.540817
v -66.400169 0.100000 -78.540543
v 63.600166 0.100000 81.459183
v -66.399834 0.100000 81.459457
v 72.600136 0.100000 -158.540680
v 62.600136 0.100000 -158.540695
v 72.599876 0.100000 81.459320
v 62.599869 0.100000 81.459305
vt 0.000000 0.000000
vt 1.000000 0.000000
vt 0.000000 1.000000
vt 1.000000 1.000000
vt 0.000000 0.000000
vt 1.000000 0.000000
vt 0.000000 1.000000
vt 1.000000 1.000000
vn 0.0000 1.0000 0.0000
usemtl None
s 1
f 1/1/1 2/2/1 3/3/1
f 3/3/1 2/2/1 4/4/1
f 5/5/1 6/6/1 7/7/1
f 7/7/1 6/6/1 8/8/1
