# Blender v2.79 (sub 0) OBJ File: ''
# www.blender.org
mtllib 103_VARC.mtl
o plane.001_plane.031
v 14.500003 0.100000 -29.731621
v -15.499997 0.100000 -29.731625
v 14.499997 0.100000 30.268379
v -15.500003 0.100000 30.268375
v 14.500010 0.100000 30.268383
v 4.500010 0.100000 30.268362
v 14.499989 0.100000 40.268379
v 4.499990 0.100000 40.268364
vt 0.000000 0.000000
vt 1.000000 0.000000
vt 0.000000 1.000000
vt 1.000000 1.000000
vt 0.000000 0.000000
vt 1.000000 0.000000
vt 0.000000 1.000000
vt 1.000000 1.000000
vn 0.0000 1.0000 0.0000
usemtl None
s 1
f 1/1/1 2/2/1 3/3/1
f 3/3/1 2/2/1 4/4/1
f 5/5/1 6/6/1 7/7/1
f 7/7/1 6/6/1 8/8/1
