# Blender v2.79 (sub 0) OBJ File: ''
# www.blender.org
mtllib 106_whaleclub.mtl
o plane_plane.034
v 10.000016 0.100000 -14.794436
v -9.999984 0.100000 -14.794458
v 9.999984 0.100000 15.205564
v -10.000016 0.100000 15.205542
v -9.999994 0.100000 -14.794441
v -19.999992 0.100000 -14.794452
v -10.000005 0.100001 -4.794442
v -20.000004 0.100001 -4.794453
vt 0.000000 0.000000
vt 1.000000 0.000000
vt 0.000000 1.000000
vt 1.000000 1.000000
vt 0.000000 0.000000
vt 1.000000 0.000000
vt 0.000000 1.000000
vt 1.000000 1.000000
vn 0.0000 1.0000 0.0000
usemtl None
s 1
f 1/1/1 2/2/1 3/3/1
f 3/3/1 2/2/1 4/4/1
f 5/5/1 6/6/1 7/7/1
f 7/7/1 6/6/1 8/8/1
